<?xml version="1.0" encoding="UTF-8" standalone="no"?>
<!DOCTYPE svg PUBLIC "-//W3C//DTD SVG 1.1//EN" "http://www.w3.org/Graphics/SVG/1.1/DTD/svg11.dtd">
<svg width="100%" height="100%" viewBox="0 0 1080 1080" version="1.1" xmlns="http://www.w3.org/2000/svg" xmlns:xlink="http://www.w3.org/1999/xlink" xml:space="preserve" xmlns:serif="http://www.serif.com/" style="fill-rule:evenodd;clip-rule:evenodd;stroke-linecap:round;stroke-linejoin:round;stroke-miterlimit:10;">
    <g transform="matrix(1.5637,0,0,1.5637,-306.066,-303.539)">
        <g transform="matrix(576.001,313.656,313.656,-576.001,250.988,385.029)">
            <path d="M0.206,0.327C0.088,0.342 0.009,0.21 0.078,0.113C-0.029,0.062 -0.025,-0.092 0.085,-0.136C0.023,-0.237 0.11,-0.364 0.226,-0.342C0.228,-0.46 0.37,-0.52 0.456,-0.438C0.522,-0.537 0.674,-0.51 0.702,-0.395C0.811,-0.443 0.924,-0.338 0.885,-0.226C1.002,-0.207 1.041,-0.058 0.948,0.015C1.036,0.094 0.989,0.241 0.871,0.252C0.902,0.366 0.783,0.464 0.677,0.41C0.642,0.523 0.489,0.54 0.429,0.438C0.382,0.477 0.323,0.478 0.277,0.453C0.234,0.429 0.203,0.384 0.206,0.327Z" style="fill:url(#_Linear1);fill-rule:nonzero;"/>
        </g>
        <g transform="matrix(4.16667,0,0,4.16667,-5274.85,-2994.65)">
            <g opacity="0.47">
                <g opacity="0.25">
                    <g transform="matrix(1,0,0,1,1462.71,855.846)">
                        <path d="M0,-13.8C14.806,-3.744 10.593,19.116 -6.825,23.233C0.194,39.698 -15.709,56.651 -32.588,50.698C-35.585,68.344 -58.129,74.008 -69.11,59.874C-81.171,73.098 -103.198,65.675 -104.795,47.848C-122.091,52.452 -136.608,34.299 -128.314,18.439C-145.353,12.961 -147.751,-10.159 -132.199,-19.017C-143.572,-32.838 -133.09,-53.584 -115.217,-52.628C-117.313,-70.403 -97.278,-82.189 -82.76,-71.722C-74.913,-87.808 -51.687,-86.892 -45.132,-70.237C-29.834,-79.527 -10.79,-66.199 -14.28,-48.644C3.612,-48.189 12.427,-26.681 0,-13.8Z" style="fill:none;fill-rule:nonzero;stroke:white;stroke-width:2.76px;"/>
                    </g>
                </g>
                <g opacity="0.25">
                    <g transform="matrix(1,0,0,1,1447.35,873.097)">
                        <path d="M0,-47.458C14.313,-43.713 17.345,-24.739 4.912,-16.72C14.929,-5.83 7.221,11.77 -7.574,11.795C-5.035,26.371 -21.034,37.011 -33.494,29.033C-39.238,42.667 -58.45,42.968 -64.618,29.52L-64.619,29.52C-76.822,37.885 -93.147,27.751 -91.066,13.103C-105.855,13.542 -114.109,-3.808 -104.439,-15.006C-117.118,-22.632 -114.681,-41.691 -100.492,-45.883C-107.035,-59.153 -94.682,-73.87 -80.479,-69.725C-78.809,-84.426 -60.46,-90.127 -50.752,-78.962C-41.399,-90.426 -22.881,-85.302 -20.751,-70.661C-6.685,-75.249 6.124,-60.926 0,-47.458Z" style="fill:white;fill-rule:nonzero;stroke:white;stroke-width:2.55px;"/>
                    </g>
                </g>
                <g opacity="0.25">
                    <g transform="matrix(1,0,0,1,1424.72,862.039)">
                        <path d="M0,-23.999C8.067,-21.118 9.18,-10.167 1.859,-5.721C6.691,1.352 1.156,10.865 -7.381,10.159C-7.629,18.721 -17.699,23.164 -24.19,17.575C-29.423,24.357 -40.182,22.032 -42.148,13.695C-50.368,16.105 -57.705,7.901 -54.396,0C-62.462,-2.881 -63.576,-13.832 -56.254,-18.278C-61.087,-25.35 -55.551,-34.864 -47.015,-34.158C-46.767,-42.72 -36.696,-47.163 -30.205,-41.574C-24.972,-48.356 -14.214,-46.031 -12.247,-37.694C-4.028,-40.104 3.31,-31.899 0,-23.999Z" style="fill:none;fill-rule:nonzero;stroke:white;stroke-width:2.55px;"/>
                    </g>
                </g>
                <g opacity="0.25">
                    <g transform="matrix(1,0,0,1,1434.65,866.287)">
                        <path d="M0,-34.3L-1.128,-31.332L1.736,-29.961C11.331,-25.369 11.757,-11.866 2.471,-6.678L-0.302,-5.129L1.011,-2.238C5.41,7.448 -2.943,18.065 -13.392,16.07L-16.511,15.475L-17.364,18.533C-20.22,28.78 -33.444,31.544 -40.166,23.3L-42.172,20.839L-44.792,22.634C-53.566,28.647 -65.473,22.265 -65.323,11.628L-65.278,8.453L-68.438,8.145C-79.025,7.111 -84.044,-5.432 -77.092,-13.483L-75.016,-15.887L-77.239,-18.154C-84.685,-25.751 -80.467,-38.586 -69.966,-40.285L-66.831,-40.792L-67.076,-43.958C-67.897,-54.563 -56.416,-61.684 -47.279,-56.235L-44.552,-54.609L-42.705,-57.192C-36.516,-65.844 -23.144,-63.918 -19.648,-53.872L-18.604,-50.873L-15.529,-51.664C-5.227,-54.314 3.779,-44.243 0,-34.3Z" style="fill:none;fill-rule:nonzero;stroke:white;stroke-width:2.55px;"/>
                    </g>
                </g>
                <g opacity="0.25">
                    <g transform="matrix(1,0,0,1,1410.77,862.273)">
                        <path d="M0,-23.735C5.568,-23.154 8.166,-16.535 4.48,-12.322L4.479,-12.322L4.48,-12.322C8.372,-8.298 6.108,-1.557 0.575,-0.7C0.97,4.885 -5.097,8.593 -9.887,5.694C-13.174,10.226 -20.205,9.166 -22.011,3.867C-27.442,5.226 -32.147,-0.106 -30.124,-5.326C-35.158,-7.776 -35.335,-14.884 -30.43,-17.583C-32.711,-22.696 -28.278,-28.255 -22.785,-27.169C-21.247,-32.552 -14.277,-33.961 -10.768,-29.598C-6.129,-32.733 0.116,-29.333 0,-23.735Z" style="fill:none;fill-rule:nonzero;stroke:white;stroke-width:2.55px;"/>
                    </g>
                </g>
                <g opacity="0.25">
                    <g transform="matrix(1,0,0,1,1404.61,856.445)">
                        <path d="M0,-12.811L0.195,-10.858L1.844,-9.794C4.112,-8.33 4.194,-5.042 2.002,-3.467L0.408,-2.322L0.311,-0.361C0.177,2.335 -2.629,4.05 -5.089,2.939L-6.878,2.131L-8.624,3.027C-11.026,4.259 -13.915,2.686 -14.183,0L-14.377,-1.953L-16.026,-3.017C-18.295,-4.481 -18.377,-7.769 -16.184,-9.344L-14.59,-10.489L-14.493,-12.449C-14.36,-15.145 -11.553,-16.86 -9.093,-15.749L-7.304,-14.941L-5.558,-15.838C-3.157,-17.07 -0.268,-15.497 0,-12.811" style="fill:white;fill-rule:nonzero;"/>
                    </g>
                </g>
            </g>
        </g>
        <g transform="matrix(0,4.16667,4.16667,0,720.444,527.918)">
            <path d="M2.758,-2.758C0.861,-2.758 -0.677,-1.523 -0.677,-0C-0.677,1.524 0.861,2.758 2.758,2.758C4.656,2.758 6.194,1.524 6.194,-0C6.194,-1.523 4.656,-2.758 2.758,-2.758" style="fill:white;fill-rule:nonzero;"/>
        </g>
        <g transform="matrix(4.16667,0,0,4.16667,703.055,685.117)">
            <path d="M0,-29.023C-1.67,-27.69 -3.142,-26.385 -4.521,-25.027C-5.897,-23.683 -7.175,-22.351 -8.368,-20.977C-10.76,-18.255 -12.833,-15.456 -14.769,-12.597C-15.007,-12.232 -15.24,-11.864 -15.485,-11.514C-15.727,-11.161 -15.947,-10.776 -16.182,-10.414L-16.536,-9.875C-16.651,-9.693 -16.76,-9.5 -16.873,-9.314C-17.094,-8.935 -17.33,-8.577 -17.559,-8.21C-17.777,-7.828 -17.994,-7.444 -18.219,-7.072L-18.556,-6.514L-18.878,-5.934C-19.096,-5.551 -19.312,-5.167 -19.535,-4.791L-20.173,-3.618C-20.624,-2.862 -20.974,-2.009 -21.531,-1.32C-21.809,-0.977 -22.106,-0.638 -22.436,-0.32C-22.772,-0.005 -23.149,0.284 -23.563,0.556C-23.987,0.819 -24.421,1.092 -24.923,1.325C-25.051,1.382 -25.173,1.443 -25.307,1.497L-25.719,1.656L-25.993,1.762C-26.087,1.799 -26.182,1.832 -26.278,1.861L-26.59,1.957C-27.018,2.094 -27.803,2.168 -28.64,2.206C-30.867,2.307 -32.855,0.515 -33.527,-2.131C-33.56,-2.259 -33.594,-2.388 -33.63,-2.52L-33.721,-2.894C-33.756,-3.036 -33.786,-3.18 -33.813,-3.325L-33.876,-3.674L-33.976,-4.242C-34.006,-4.431 -34.024,-4.611 -34.048,-4.797C-34.124,-5.528 -34.17,-6.244 -34.14,-6.924C-34.064,-8.272 -33.868,-9.56 -33.444,-10.701C-33.038,-11.856 -32.455,-12.871 -31.858,-13.886C-31.56,-14.393 -31.266,-14.901 -30.956,-15.397L-29.989,-16.86L-29.499,-17.582L-28.979,-18.281C-28.633,-18.748 -28.278,-19.203 -27.926,-19.659C-26.466,-21.444 -24.909,-23.116 -23.214,-24.576C-21.518,-26.034 -19.721,-27.313 -17.837,-28.346C-15.953,-29.379 -13.98,-30.156 -11.973,-30.647C-9.967,-31.137 -7.92,-31.33 -5.897,-31.174C-5.395,-31.149 -4.884,-31.061 -4.385,-30.984L-3.775,-30.87C-3.682,-30.853 -3.591,-30.833 -3.499,-30.809L-2.89,-30.651C-1.904,-30.378 -0.929,-30.01 -0.002,-29.422L0,-29.023Z" style="fill:white;fill-rule:nonzero;"/>
        </g>
        <g transform="matrix(4.16667,0,0,4.16667,703.055,392.958)">
            <path d="M0,29.023C-1.67,27.69 -3.142,26.385 -4.521,25.027C-5.897,23.683 -7.175,22.351 -8.368,20.977C-10.76,18.255 -12.833,15.456 -14.769,12.597C-15.007,12.232 -15.24,11.864 -15.485,11.514C-15.727,11.161 -15.947,10.776 -16.182,10.414L-16.536,9.875C-16.651,9.693 -16.76,9.5 -16.873,9.314C-17.094,8.935 -17.33,8.577 -17.559,8.21C-17.777,7.828 -17.994,7.444 -18.219,7.072L-18.556,6.514L-18.878,5.934C-19.096,5.551 -19.312,5.167 -19.535,4.791L-20.173,3.618C-20.624,2.862 -20.974,2.009 -21.531,1.32C-21.809,0.977 -22.106,0.638 -22.436,0.32C-22.772,0.005 -23.149,-0.284 -23.563,-0.556C-23.987,-0.819 -24.421,-1.092 -24.923,-1.325C-25.051,-1.382 -25.173,-1.443 -25.307,-1.497L-25.719,-1.656L-25.993,-1.762C-26.087,-1.799 -26.182,-1.832 -26.278,-1.861L-26.59,-1.957C-27.018,-2.094 -27.803,-2.168 -28.64,-2.206C-30.867,-2.307 -32.855,-0.515 -33.527,2.131C-33.56,2.259 -33.594,2.388 -33.63,2.52L-33.721,2.894C-33.756,3.036 -33.786,3.18 -33.813,3.325L-33.876,3.674L-33.976,4.242C-34.006,4.431 -34.024,4.611 -34.048,4.797C-34.124,5.528 -34.17,6.244 -34.14,6.924C-34.064,8.272 -33.868,9.56 -33.444,10.701C-33.038,11.856 -32.455,12.871 -31.858,13.886C-31.56,14.393 -31.266,14.901 -30.956,15.397L-29.989,16.86L-29.499,17.582L-28.979,18.281C-28.633,18.748 -28.278,19.203 -27.926,19.659C-26.466,21.444 -24.909,23.116 -23.214,24.576C-21.518,26.034 -19.721,27.313 -17.837,28.346C-15.953,29.379 -13.98,30.156 -11.973,30.647C-9.967,31.137 -7.92,31.33 -5.897,31.174C-5.395,31.149 -4.884,31.061 -4.385,30.984L-3.775,30.87C-3.682,30.853 -3.591,30.833 -3.499,30.809L-2.89,30.651C-1.904,30.378 -0.929,30.01 -0.002,29.422L0,29.023Z" style="fill:white;fill-rule:nonzero;"/>
        </g>
        <g transform="matrix(4.16667,0,0,4.16667,631.911,548.851)">
            <path d="M0,-3.544C0,-3.544 -63.897,14.447 -64.504,-1.725C-65.115,-17.991 -3.339,-4.608 0,-3.544" style="fill:white;fill-rule:nonzero;"/>
        </g>
    </g>
    <defs>
        <linearGradient id="_Linear1" x1="0" y1="0" x2="1" y2="0" gradientUnits="userSpaceOnUse" gradientTransform="matrix(1,5.55112e-17,5.55112e-17,-1,0,0.00322519)"><stop offset="0" style="stop-color:rgb(229,159,37);stop-opacity:1"/><stop offset="1" style="stop-color:rgb(244,1,181);stop-opacity:1"/></linearGradient>
    </defs>
</svg>
